<svg width="24" height="32" viewBox="0 0 24 32" fill="none" xmlns="http://www.w3.org/2000/svg">
<g clip-path="url(#clip0_3_90)">
<path fill-rule="evenodd" clip-rule="evenodd" d="M20.25 11.5H17.25V8.5C17.25 7.67157 16.5784 7 15.75 7H3.75C2.92157 7 2.25 7.67157 2.25 8.5V20.5C2.2509 20.7879 2.41656 21.0499 2.67629 21.1742C2.93603 21.2985 3.24398 21.2631 3.46875 21.0831L6.75 18.4375V21.25C6.75 22.0784 7.42157 22.75 8.25 22.75H17.0241L20.5312 25.5831C20.664 25.6905 20.8293 25.7493 21 25.75C21.4142 25.75 21.75 25.4142 21.75 25V13C21.75 12.1716 21.0784 11.5 20.25 11.5ZM6.23906 16.9169L3.75 18.9297V8.5H15.75V16.75H6.71063C6.53897 16.75 6.37252 16.8089 6.23906 16.9169ZM20.25 23.4297L17.7609 21.4169C17.6282 21.3095 17.4629 21.2507 17.2922 21.25H8.25V18.25H15.75C16.5784 18.25 17.25 17.5784 17.25 16.75V13H20.25V23.4297Z" fill="#4F7396"/>
</g>
<defs>
<clipPath id="clip0_3_90">
<rect width="24" height="24" fill="white" transform="translate(0 4)"/>
</clipPath>
</defs>
</svg>
